<svg xmlns="http://www.w3.org/2000/svg" enable-background="new 0 0 24 24" viewBox="0 0 24 24"><path d="M21.25 24h-6.841c-.2 0-.392-.08-.533-.223l-6.003-6.066c-.29-.292-.289-.763 0-1.056l6.004-6.054c.141-.142.333-.223.534-.223h6.839c.303 0 .576.182.692.461.116.279.054.602-.159.816l-5.472 5.53 5.472 5.536c.213.215.275.537.159.816C21.826 23.818 21.553 24 21.25 24zM14.722 22.5h4.732l-4.731-4.787c-.289-.292-.289-.763 0-1.055l4.729-4.779h-4.729l-5.262 5.305L14.722 22.5zM6.683 16.219c-.2 0-.392-.08-.533-.223l-3.433-3.469c-.289-.292-.289-.763 0-1.055l11.147-11.25c.18-.181.43-.25.663-.211h6.708c.303 0 .576.182.692.461.116.279.054.602-.159.816L7.216 15.997C7.075 16.139 6.883 16.219 6.683 16.219zM4.306 12.001l2.377 2.402L19.438 1.511h-4.74L4.306 12.001z"/></svg>