<svg xmlns="http://www.w3.org/2000/svg" viewBox="0 0 24 24"><path d="M23.5 24H.5a.5.5 0 0 1-.5-.5V.5A.5.5 0 0 1 .5 0h23a.5.5 0 0 1 .5.5v23a.5.5 0 0 1-.5.5zM1 23h22V1H1v22zm8.787-.772c-.823 0-1.585-.197-2.229-.582-.605-.364-1.111-.939-1.462-1.665a.5.5 0 0 1 .188-.644l1.749-1.078a.504.504 0 0 1 .262-.074c.3 0 .432.227.511.363.237.397.369.566.624.694.005-.004.14.034.308.033.193 0 .423-.048.524-.259.103-.218.094-1.065.088-1.684l-.005-.698.009-5.563a.5.5 0 0 1 .5-.5h2.154a.5.5 0 0 1 .498.536v2c.003 1.317.005 2.63-.002 3.942l.006.516c.017 1.055.033 2.051-.448 2.928-.366.747-1.092 1.32-2.036 1.592a5.6 5.6 0 0 1-1.239.143zm-2.571-2.29c.237.364.528.654.855.851.724.433 1.711.554 2.707.329.444-.129 1.075-.43 1.396-1.084.364-.666.351-1.493.335-2.452l-.006-.533c.008-1.314.005-2.625.002-3.939l-.002-1.538h-1.152l-.008 5.063.005.688c.012 1.167.008 1.792-.205 2.161-.379.794-1.324.925-2.083.687a2.205 2.205 0 0 1-.924-.8l-.92.567zm1.078-1.2-.388.254.388-.254zm.023-.015.007-.005-.007.005zm9.737 3.404c-1.346 0-2.688-.468-3.493-1.281l-.212-.241c-.254-.286-.474-.533-.667-.974a.5.5 0 0 1 .209-.634l1.754-1.007a.5.5 0 0 1 .667.158c.447.677.78.936 1.373 1.067.505.061.996-.037 1.198-.256.038-.042.153-.166.091-.49-.092-.293-.745-.568-1.375-.833-.612-.257-1.305-.549-1.903-.996-.74-.498-1.25-1.367-1.377-2.369-.126-.995.149-1.959.757-2.647.416-.514 1.111-.927 1.895-1.118l.731-.095c1.429-.033 2.418.333 3.151 1.154.2.194.358.419.61.811a.496.496 0 0 1-.157.694c-.687.428-.687.428-1.673 1.072a.5.5 0 0 1-.726-.206c-.143-.304-.367-.517-.63-.598-.22-.065-.483-.047-.65.05a.324.324 0 0 0-.168.218c-.022.079-.041.139.04.429.083.178.556.381 1.012.578.147.063.295.127.44.195 1.959.794 2.941 1.762 3.159 3.127a.49.49 0 0 1-.006.191c.086.741-.037 1.281-.125 1.552-.331 1.132-1.253 1.946-2.594 2.286a5.355 5.355 0 0 1-1.331.163zm-3.233-2.511c.077.103.166.202.274.325l.2.228c.804.809 2.465 1.177 3.843.828.57-.144 1.572-.545 1.882-1.605.062-.192.179-.667.058-1.354a.49.49 0 0 1-.001-.162c-.165-.652-.671-1.397-2.527-2.15-.16-.074-.299-.134-.436-.193-.634-.273-1.291-.556-1.556-1.163-.121-.418-.162-.7-.065-1.02a1.3 1.3 0 0 1 .632-.826c.408-.238.946-.291 1.442-.142.369.114.691.337.942.646.402-.262.576-.375.827-.532a1.968 1.968 0 0 0-.208-.241c-.561-.626-1.254-.876-2.354-.847l-.624.081c-.511.128-1.022.424-1.313.782-.431.488-.618 1.166-.528 1.875.09.706.451 1.334.964 1.681.52.387 1.126.643 1.712.889.901.379 1.753.738 1.958 1.51l.006.027c.142.694-.103 1.137-.333 1.386-.432.469-1.201.674-2.102.562-.838-.184-1.342-.576-1.765-1.117l-.928.532z"/></svg>