<svg xmlns="http://www.w3.org/2000/svg" viewBox="0 0 24 24"><path d="M12.512 24.013a.511.511 0 0 1-.163-.027l-.599-.206a.5.5 0 0 1-.337-.483c0-.016.027-1.457-.288-2.345a12.867 12.867 0 0 1-2.323-2.438 12.8 12.8 0 0 1-.896-1.404 11.18 11.18 0 0 1-1.394-5.934c.178-3.863 1.726-7.372 4.245-9.625.405-.363.616-.708.684-1.117a.499.499 0 0 1 .465-.418c.25-.034.445.138.51.363.113.402.321.84.57 1.2.085.162.301.394.492.597.938 1 2.889 3.082 3.825 7.338.931 5.606-1.662 9.068-3.29 10.636-.359.35-.64.569-.777.673a.983.983 0 0 0-.188.38c-.127.586-.071 1.841-.038 2.275a.504.504 0 0 1-.193.433.51.51 0 0 1-.305.102zM11.923 1.76a3.834 3.834 0 0 1-.498.534c-2.321 2.075-3.747 5.329-3.914 8.928a10.197 10.197 0 0 0 1.273 5.407c.243.442.521.878.825 1.293.975 1.328 1.955 2.111 2.232 2.32a.49.49 0 0 1 .161.207c.046.109.087.226.123.347.076-.225.199-.44.372-.652a.512.512 0 0 1 .092-.088c.093-.067.366-.271.694-.58 1.523-1.479 3.89-4.645 3.039-9.773-.873-3.962-2.63-5.836-3.573-6.844-.318-.339-.528-.563-.631-.793a4.144 4.144 0 0 1-.195-.306z"/></svg>