<svg xmlns="http://www.w3.org/2000/svg" viewBox="0 0 24 24"><path d="M12 19c-6.729 0-12-3.075-12-7s5.271-7 12-7 12 3.075 12 7-5.271 7-12 7zm0-13C5.935 6 1 8.691 1 12s4.935 6 11 6 11-2.691 11-6-4.935-6-11-6z"/><path d="M5.501 16a.5.5 0 0 1-.494-.582l.33-1.98a.475.475 0 0 1 .007-.04l.663-3.979A.5.5 0 0 1 6.5 9h1.371c.552 0 1.071.244 1.424.669.354.425.498.98.396 1.524l-.194 1.036A2.171 2.171 0 0 1 7.364 14H6.257l-.264 1.582a.5.5 0 0 1-.492.418zm.923-3h.94c.562 0 1.046-.401 1.15-.955l.194-1.035A.853.853 0 0 0 7.871 10h-.947l-.5 3zm9.327 3a.5.5 0 0 1-.494-.582l.33-1.98a.475.475 0 0 1 .007-.04l.663-3.979A.5.5 0 0 1 16.75 9h1.371c.552 0 1.071.244 1.424.669.354.425.498.98.396 1.524l-.194 1.036A2.171 2.171 0 0 1 17.614 14h-1.107l-.264 1.582a.5.5 0 0 1-.492.418zm.923-3h.94c.562 0 1.046-.401 1.15-.955l.194-1.035a.853.853 0 0 0-.837-1.01h-.947l-.5 3zm-5.673 1a.5.5 0 0 1-.494-.582l1-6a.5.5 0 0 1 .986.164l-1 6a.5.5 0 0 1-.492.418z"/><path d="M14.001 14a.5.5 0 0 1-.496-.57l.359-2.518a.36.36 0 0 0-.356-.412H11.75a.5.5 0 0 1 0-1h1.758a1.36 1.36 0 0 1 1.346 1.554l-.359 2.517a.5.5 0 0 1-.494.429z"/></svg>