<svg xmlns="http://www.w3.org/2000/svg" viewBox="0 0 24 24"><path d="M12 24.002c-6.617 0-12-5.383-12-12s5.383-12 12-12 12 5.383 12 12-5.383 12-12 12zm0-23c-6.065 0-11 4.935-11 11s4.935 11 11 11 11-4.935 11-11-4.935-11-11-11z"/><path d="M11.978 7.253h-.686c-.835.003-2.101.007-2.95-.277a.499.499 0 1 1 .316-.948c.694.231 1.909.225 2.631.225h.42c.728 0 1.938.006 2.631-.225a.5.5 0 1 1 .316.948c-.76.255-1.857.277-2.678.277z"/><path d="M15.5 23.002a.5.5 0 0 1-.471-.333l-5.5-15.5a.5.5 0 0 1 .942-.334l5.5 15.5a.5.5 0 0 1-.471.667zM17.5 20.002a.5.5 0 0 1-.476-.348l-4-12.5a.5.5 0 1 1 .952-.304l4 12.5a.5.5 0 0 1-.476.652zM3.977 7.253H3.5c-1.111 0-1.671-.275-1.731-.307a.501.501 0 0 1 .463-.887s.413.193 1.269.193h.208c.728.009 1.94.006 2.633-.225a.5.5 0 1 1 .316.949c-.762.254-1.858.277-2.681.277z"/><path d="M7.5 23.002a.5.5 0 0 1-.471-.333l-5.5-15.5a.5.5 0 0 1 .942-.334l5.5 15.5a.5.5 0 0 1-.471.667zM9.5 20.002a.5.5 0 0 1-.476-.348l-4-12.5a.5.5 0 1 1 .952-.304l4 12.5a.5.5 0 0 1-.476.652zM17.477 22.154l-.953-.304s1.805-5.658 2.977-9.348a.51.51 0 0 1 .021-.143c.37-1.241-.618-2.919-1.412-4.269C17.514 7.08 17 6.207 17 5.502c0-2.175 1.253-2.5 2-2.5 1.006 0 1.828.595 2.443 1.768.634 1.209.473 3.417-.466 6.383-1.042 3.292-3.5 11.001-3.5 11.001zM19 4.002c-.35 0-1 0-1 1.5 0 .432.494 1.271.971 2.082.45.764.956 1.623 1.283 2.5.893-3.167.52-4.436.304-4.849C19.979 4.13 19.391 4.002 19 4.002z"/><path d="M8.5 23.002a.502.502 0 0 1-.472-.665l3.5-10a.5.5 0 1 1 .944.33l-3.5 10a.5.5 0 0 1-.472.335z"/></svg>